<svg width="490" height="490" viewBox="0 0 490 490" fill="none" xmlns="http://www.w3.org/2000/svg">
<g clip-path="url(#clip0_3_3)">
<path d="M85.924 272.426L48.7 329.482L159.674 440.457L216.73 403.232L85.924 272.426Z" fill="#E40078"/>
<path d="M114.551 106.303L17.164 203.69L94.942 228.465L222.331 101.076L114.551 106.303Z" fill="#E40078"/>
<path d="M285.465 471.992L382.853 374.605L388.081 266.818L260.69 394.208L285.465 471.992Z" fill="#E40078"/>
<path d="M62.2953 371.357L34.0106 343.072L0.0111265 377.072L28.2958 405.357L62.2953 371.357Z" fill="#164193"/>
<path d="M83.7963 460.866L112.081 489.151L146.08 455.151L117.796 426.866L83.7963 460.866Z" fill="#E40078"/>
<path d="M75.1511 384.221L25.0291 434.343L53.3131 462.627L103.435 412.505L75.1511 384.221Z" fill="#F7E700"/>
<path d="M477.223 23.582L474.027 15.125L403.84 85.312C423.37 104.842 423.363 136.5 403.84 156.023C384.31 175.553 352.66 175.553 333.129 156.023L151.325 337.827L234.198 420.7L434.938 219.959C486.288 168.61 502.884 91.528 477.223 23.582Z" fill="#164193"/>
<path d="M403.84 156.023C423.363 136.5 423.37 104.843 403.84 85.312L333.129 156.023C352.659 175.553 384.31 175.553 403.84 156.023Z" fill="#E40078"/>
<path d="M333.129 156.023C313.606 136.5 313.599 104.843 333.129 85.312C352.652 65.789 384.317 65.789 403.84 85.312L474.027 15.125L465.577 11.936C444.612 4.009 422.571 0 400.085 0C350.644 0 304.159 19.247 269.2 54.207L68.452 254.954L151.325 337.827L333.129 156.023Z" fill="#F7E700"/>
<path d="M333.129 85.312C313.599 104.842 313.606 136.5 333.129 156.023L403.84 85.312C384.317 65.789 352.652 65.789 333.129 85.312Z" fill="#E40078"/>
<path d="M174.448 263.587C172.558 265.176 170.661 266.55 168.758 267.709C166.855 268.822 165.311 269.592 164.125 270.019L157.551 263.156L165.177 255.851C165.885 256.591 166.544 256.978 167.155 257.014C167.743 257.027 168.453 256.635 169.285 255.838C170.024 255.129 170.445 254.505 170.547 253.964C170.673 253.401 170.514 252.888 170.071 252.426C169.761 252.102 169.334 251.957 168.791 251.991C168.248 251.979 167.462 252.2 166.434 252.653C162.961 254.163 160.144 255.2 157.981 255.764C155.82 256.284 153.85 256.332 152.071 255.909C150.27 255.463 148.529 254.361 146.846 252.605C144.566 250.225 143.456 247.677 143.514 244.963C143.572 242.248 145.03 239.213 147.886 235.857L144.067 231.87L148.608 227.521L152.36 231.438C154.343 229.76 156.307 228.411 158.253 227.389C160.176 226.344 161.729 225.698 162.911 225.452L168.855 231.657L161.575 238.63C160.469 237.474 159.28 237.505 158.009 238.723C157.246 239.453 156.791 240.088 156.644 240.628C156.497 241.123 156.656 241.613 157.121 242.098C157.475 242.468 157.891 242.601 158.369 242.499C158.846 242.396 159.623 242.073 160.698 241.53C163.534 240.143 165.966 239.165 167.992 238.598C170.02 237.985 172.025 237.881 174.008 238.286C175.992 238.645 177.88 239.761 179.673 241.633C182.197 244.267 183.381 247.077 183.226 250.061C183.095 253.023 181.671 256.07 178.956 259.203L182.973 263.397L178.432 267.747L174.448 263.587ZM197.038 205.525L191.075 211.236L188.486 208.532L186.267 210.657L201.209 226.256L203.635 223.932L209.08 229.617L194.522 243.562L189.076 237.877L191.503 235.553L176.561 219.954L174.343 222.079L176.933 224.783L170.971 230.494L162.936 222.105L189.002 197.137L197.038 205.525ZM229.521 210.968C225.292 215.019 220.959 217.042 216.524 217.037C212.111 217.01 207.569 214.558 202.899 209.682C198.228 204.806 195.974 200.163 196.137 195.753C196.323 191.321 198.53 187.08 202.759 183.029C206.988 178.978 211.309 176.966 215.722 176.994C220.158 176.998 224.711 179.439 229.381 184.315C234.052 189.191 236.294 193.845 236.108 198.277C235.946 202.687 233.75 206.917 229.521 210.968ZM223.611 204.798C224.396 204.045 224.786 203.273 224.781 202.48C224.775 201.688 224.352 200.853 223.511 199.975L213.483 189.506C212.642 188.628 211.826 188.169 211.035 188.13C210.243 188.09 209.455 188.447 208.669 189.199C207.884 189.952 207.493 190.724 207.499 191.516C207.505 192.309 207.928 193.144 208.769 194.022L218.797 204.49C219.66 205.392 220.487 205.862 221.278 205.902C222.048 205.918 222.825 205.55 223.611 204.798ZM243.476 196.67L238.03 190.986L239.764 189.325L224.822 173.727L223.089 175.387L217.644 169.702L230.816 157.085L236.261 162.77L234.528 164.43L249.469 180.028L251.202 178.368L256.648 184.053L243.476 196.67ZM258.725 182.064L253.28 176.379L258.687 171.199L264.132 176.884L258.725 182.064ZM255.221 133.708L266.799 122.618L272.244 128.303L270.857 129.631L285.039 156.858L273.808 167.616L247.217 152.276L245.83 153.604L240.385 147.919L253.696 135.169L259.141 140.854L257.339 142.58L270.853 151.901L271.2 151.569L262.469 137.666L260.666 139.393L255.221 133.708Z" fill="black"/>
</g>
<defs>
<clipPath id="clip0_3_3">
<rect width="489.143" height="489.143" fill="white"/>
</clipPath>
</defs>
</svg>
